<?xml version="1.0" encoding="UTF-8" standalone="no"?>
<svg width="124px" height="66px" viewBox="0 0 124 66" version="1.1" xmlns="http://www.w3.org/2000/svg" xmlns:xlink="http://www.w3.org/1999/xlink">
    <!-- Generator: Sketch 39.1 (31720) - http://www.bohemiancoding.com/sketch -->
    <title>banben</title>
    <desc>Created with Sketch.</desc>
    <defs>
        <path d="M67,20 C67,19.4477153 67.4437166,19 67.9998075,19 L71.0001925,19 C71.5523709,19 72,19.4438648 72,20 C72,20.5522847 71.5562834,21 71.0001925,21 L67.9998075,21 C67.4476291,21 67,20.5561352 67,20 Z M78,20 C78,19.4477153 78.4437166,19 78.9998075,19 L82.0001925,19 C82.5523709,19 83,19.4438648 83,20 C83,20.5522847 82.5562834,21 82.0001925,21 L78.9998075,21 C78.4476291,21 78,20.5561352 78,20 Z M75,12 C75.5522847,12 76,12.4437166 76,12.9998075 L76,16.0001925 C76,16.5523709 75.5561352,17 75,17 C74.4477153,17 74,16.5562834 74,16.0001925 L74,12.9998075 C74,12.4476291 74.4438648,12 75,12 Z M75,23 C75.5522847,23 76,23.4437166 76,23.9998075 L76,27.0001925 C76,27.5523709 75.5561352,28 75,28 C74.4477153,28 74,27.5562834 74,27.0001925 L74,23.9998075 C74,23.4476291 74.4438648,23 75,23 Z M69.3431458,14.3431458 C69.73367,13.9526215 70.3640076,13.949794 70.7572232,14.3430096 L72.8788158,16.4646022 C73.2692649,16.8550513 73.2719266,17.4854327 72.8786797,17.8786797 C72.4881554,18.2692039 71.8578178,18.2720314 71.4646022,17.8788158 L69.3430096,15.7572232 C68.9525605,15.3667741 68.9498988,14.7363927 69.3431458,14.3431458 Z M77.1213203,22.1213203 C77.5118446,21.7307961 78.1421822,21.7279686 78.5353978,22.1211842 L80.6569904,24.2427768 C81.0474395,24.6332259 81.0501012,25.2636073 80.6568542,25.6568542 C80.26633,26.0473785 79.6359924,26.050206 79.2427768,25.6569904 L77.1211842,23.5353978 C76.7307351,23.1449487 76.7280734,22.5145673 77.1213203,22.1213203 Z M80.6568542,14.3431458 C81.0473785,14.73367 81.050206,15.3640076 80.6569904,15.7572232 L78.5353978,17.8788158 C78.1449487,18.2692649 77.5145673,18.2719266 77.1213203,17.8786797 C76.7307961,17.4881554 76.7279686,16.8578178 77.1211842,16.4646022 L79.2427768,14.3430096 C79.6332259,13.9525605 80.2636073,13.9498988 80.6568542,14.3431458 Z M72.8786797,22.1213203 C73.2692039,22.5118446 73.2720314,23.1421822 72.8788158,23.5353978 L70.7572232,25.6569904 C70.3667741,26.0474395 69.7363927,26.0501012 69.3431458,25.6568542 C68.9526215,25.26633 68.949794,24.6359924 69.3430096,24.2427768 L71.4646022,22.1211842 C71.8550513,21.7307351 72.4854327,21.7280734 72.8786797,22.1213203 Z" id="path-1"></path>
        <mask id="mask-2" maskContentUnits="userSpaceOnUse" maskUnits="objectBoundingBox" x="0" y="0" width="16" height="16" fill="white">
            <use xlink:href="#path-1"></use>
        </mask>
        <path d="M94,51.4809586 C94,51.0427435 94.3605198,50.6875 94.8026193,50.6875 L97.2598807,50.6875 C97.7031551,50.6875 98.0625,51.0481402 98.0625,51.4809586 L98.0625,51.5190414 C98.0625,51.9572565 97.7019802,52.3125 97.2598807,52.3125 L94.8026193,52.3125 C94.3593449,52.3125 94,51.9518598 94,51.5190414 L94,51.4809586 Z M102.9375,51.4809586 C102.9375,51.0427435 103.29802,50.6875 103.740119,50.6875 L106.197381,50.6875 C106.640655,50.6875 107,51.0481402 107,51.4809586 L107,51.5190414 C107,51.9572565 106.63948,52.3125 106.197381,52.3125 L103.740119,52.3125 C103.296845,52.3125 102.9375,51.9518598 102.9375,51.5190414 L102.9375,51.4809586 Z M100.519041,45 C100.957256,45 101.3125,45.3605198 101.3125,45.8026193 L101.3125,48.2598807 C101.3125,48.7031551 100.95186,49.0625 100.519041,49.0625 L100.480959,49.0625 C100.042744,49.0625 99.6875,48.7019802 99.6875,48.2598807 L99.6875,45.8026193 C99.6875,45.3593449 100.04814,45 100.480959,45 L100.519041,45 Z M100.519041,53.9375 C100.957256,53.9375 101.3125,54.2980198 101.3125,54.7401193 L101.3125,57.1973807 C101.3125,57.6406551 100.95186,58 100.519041,58 L100.480959,58 C100.042744,58 99.6875,57.6394802 99.6875,57.1973807 L99.6875,54.7401193 C99.6875,54.2968449 100.04814,53.9375 100.480959,53.9375 L100.519041,53.9375 Z M95.9172702,46.8903416 C96.2271351,46.5804768 96.7332562,46.5842076 97.0458677,46.8968192 L98.783414,48.6343654 C99.0968563,48.9478078 99.0959404,49.4569141 98.7898915,49.7629629 L98.7629629,49.7898915 C98.4530981,50.0997564 97.946977,50.0960255 97.6343654,49.783414 L95.8968192,48.0458677 C95.5833769,47.7324254 95.5842928,47.2233191 95.8903416,46.9172702 L95.9172702,46.8903416 Z M102.237037,53.2101085 C102.546902,52.9002436 103.053023,52.9039745 103.365635,53.216586 L105.103181,54.9541323 C105.416623,55.2675746 105.415707,55.7766809 105.109658,56.0827298 L105.08273,56.1096584 C104.772865,56.4195232 104.266744,56.4157924 103.954132,56.1031808 L102.216586,54.3656346 C101.903144,54.0521922 101.90406,53.5430859 102.210108,53.2370371 L102.237037,53.2101085 Z M105.109658,46.9172702 C105.419523,47.2271351 105.415792,47.7332562 105.103181,48.0458677 L103.365635,49.783414 C103.052192,50.0968563 102.543086,50.0959404 102.237037,49.7898915 L102.210108,49.7629629 C101.900244,49.4530981 101.903974,48.946977 102.216586,48.6343654 L103.954132,46.8968192 C104.267575,46.5833769 104.776681,46.5842928 105.08273,46.8903416 L105.109658,46.9172702 Z M98.7898915,53.2370371 C99.0997564,53.5469019 99.0960255,54.053023 98.783414,54.3656346 L97.0458677,56.1031808 C96.7324254,56.4166231 96.2233191,56.4157072 95.9172702,56.1096584 L95.8903416,56.0827298 C95.5804768,55.7728649 95.5842076,55.2667438 95.8968192,54.9541323 L97.6343654,53.216586 C97.9478078,52.9031437 98.4569141,52.9040596 98.7629629,53.2101085 L98.7898915,53.2370371 Z" id="path-3"></path>
        <mask id="mask-4" maskContentUnits="userSpaceOnUse" maskUnits="objectBoundingBox" x="0" y="0" width="13" height="13" fill="white">
            <use xlink:href="#path-3"></use>
        </mask>
        <ellipse id="path-5" cx="104.374171" cy="16.3741714" rx="4.3741714" ry="4.3741714"></ellipse>
        <mask id="mask-6" maskContentUnits="userSpaceOnUse" maskUnits="objectBoundingBox" x="0" y="0" width="8.7483428" height="8.7483428" fill="white">
            <use xlink:href="#path-5"></use>
        </mask>
        <circle id="path-7" cx="4.11191998" cy="29.11192" r="4.11191998"></circle>
        <mask id="mask-8" maskContentUnits="userSpaceOnUse" maskUnits="objectBoundingBox" x="0" y="0" width="8.22383996" height="8.22383996" fill="white">
            <use xlink:href="#path-7"></use>
        </mask>
    </defs>
    <g id="Page-1" stroke="none" stroke-width="1" fill="none" fill-rule="evenodd">
        <g id="版本控制" transform="translate(-123.000000, -234.000000)">
            <g id="确定取消" transform="translate(53.000000, 210.000000)">
                <g id="banben" transform="translate(70.000000, 24.000000)">
                    <g id="版本" transform="translate(19.000000, 3.000000)" fill="#E6E4E1">
                        <g id="Group" transform="translate(0.251129, 0.000000)">
                            <path d="M64.4312053,62.416471 L33.2984502,62.416471 C30.2734287,62.416471 27.81451,60.137544 27.81451,57.3360606 L27.81451,5.08041042 C27.81451,2.27892697 30.2734287,0 33.2984502,0 L64.4312053,0 C67.4533237,0 69.9151454,2.27892697 69.9151454,5.08041042 L69.9151454,57.3360606 C69.9122424,60.137544 67.4533238,62.416471 64.4312053,62.416471 L64.4312053,62.416471 Z M33.2984502,4.35463748 C32.6510607,4.35463748 32.1691475,4.7378456 32.1691475,5.08041042 L32.1691475,57.3360606 C32.1691475,57.6786254 32.6510607,58.0618335 33.2984502,58.0618335 L64.4312053,58.0618335 C65.0785947,58.0618335 65.5605079,57.6786254 65.5605079,57.3360606 L65.5605079,5.08041042 C65.5605079,4.7378456 65.0785947,4.35463748 64.4312053,4.35463748 L33.2984502,4.35463748 L33.2984502,4.35463748 Z" id="Shape"></path>
                            <path d="M10.2217744,40.9161741 L5.13846091,40.9161741 C4.73783426,40.9161741 4.41268797,40.5939309 4.41268797,40.1904011 L4.41268803,22.2260699 C4.41268803,21.8283463 4.73783433,21.5002969 5.13846097,21.5002969 L10.2217744,21.5002969 L10.2217744,17.1456595 L5.13846091,17.1456595 C2.33697745,17.1456595 0.0580504876,19.4245864 0.0580504876,22.2260699 L0.0580504876,40.1904011 C0.0580504876,42.9918846 2.33697745,45.2708116 5.13846091,45.2708116 L10.2217744,45.2708116 L10.2217744,40.9161741 L10.2217744,40.9161741 Z" id="Path" opacity="0.300000012"></path>
                            <path d="M25.820086,49.9593046 L17.4736974,49.9593046 C17.0730708,49.9593046 16.7479245,49.6341583 16.7479245,49.2335317 L16.7479245,45.1285601 L16.7479245,40.7739226 L16.7479245,21.3580455 L16.7479245,17.003408 L16.7479245,13.1858424 C16.7479245,12.7852157 17.0730708,12.4600694 17.4736974,12.4600694 L25.820086,12.4600694 L25.820086,8.10543194 L17.4736974,8.10543194 C14.672214,8.10543194 12.393287,10.3843589 12.393287,13.1858424 L12.393287,17.0034079 L12.393287,21.3580454 L12.393287,40.7739225 L12.393287,45.12856 L12.393287,49.2335316 C12.393287,52.0350151 14.672214,54.313942 17.4736974,54.313942 L25.820086,54.313942 L25.820086,49.9593046 L25.820086,49.9593046 Z" id="Path" opacity="0.5"></path>
                        </g>
                    </g>
                    <use id="Combined-Shape" stroke="#E6E4E1" mask="url(#mask-2)" stroke-width="2" fill="#D8D8D8" xlink:href="#path-1"></use>
                    <use id="Combined-Shape-Copy-2" stroke="#F3F1EE" mask="url(#mask-4)" stroke-width="1.6" fill="#D8D8D8" xlink:href="#path-3"></use>
                    <use id="Oval-111" stroke="#F3F1EE" mask="url(#mask-6)" stroke-width="4" xlink:href="#path-5"></use>
                    <use id="Oval-111-Copy" stroke="#F3F1EE" mask="url(#mask-8)" stroke-width="4" xlink:href="#path-7"></use>
                    <path d="M25.0442422,7.18620396 L29.3644278,7.18620396 C29.8927093,7.18620396 30.3217381,6.75892511 30.3217381,6.23184993 C30.3217381,5.70110009 29.8931357,5.27749591 29.3644278,5.27749591 L25.0442422,5.27749591 L25.0442422,0.957310257 C25.0442422,0.429028761 24.6169633,0 24.0898881,0 C23.5591383,0 23.1355341,0.428602401 23.1355341,0.957310257 L23.1355341,5.27749591 L18.8153485,5.27749591 C18.287067,5.27749591 17.8580382,5.70477476 17.8580382,6.23184993 C17.8580382,6.76259978 18.2866406,7.18620396 18.8153485,7.18620396 L23.1355341,7.18620396 L23.1355341,11.5063896 C23.1355341,12.0346711 23.562813,12.4636999 24.0898881,12.4636999 C24.620638,12.4636999 25.0442422,12.0350975 25.0442422,11.5063896 L25.0442422,7.18620396 Z" id="Combined-Shape-Copy" fill="#F3F1EE"></path>
                    <path d="M119.716031,34.6070492 L123.086864,34.6070492 C123.510245,34.6070492 123.833808,34.2736641 123.833808,33.8624127 C123.833808,33.4482941 123.49939,33.1177762 123.086864,33.1177762 L119.716031,33.1177762 L119.716031,29.7469431 C119.716031,29.3235623 119.382646,29 118.971395,29 C118.557276,29 118.226758,29.3344178 118.226758,29.7469431 L118.226758,33.1177762 L114.855925,33.1177762 C114.432545,33.1177762 114.108982,33.4511613 114.108982,33.8624127 C114.108982,34.2765313 114.4434,34.6070492 114.855925,34.6070492 L118.226758,34.6070492 L118.226758,37.9778822 C118.226758,38.401263 118.560143,38.7248254 118.971395,38.7248254 C119.385513,38.7248254 119.716031,38.3904075 119.716031,37.9778822 L119.716031,34.6070492 Z" id="Combined-Shape-Copy-6" fill="#F3F1EE"></path>
                    <path d="M15.7160314,61.6070492 L19.0868644,61.6070492 C19.5102452,61.6070492 19.8338075,61.2736641 19.8338075,60.8624127 C19.8338075,60.4482941 19.4993897,60.1177762 19.0868644,60.1177762 L15.7160314,60.1177762 L15.7160314,56.7469431 C15.7160314,56.3235623 15.3826462,56 14.9713948,56 C14.5572763,56 14.2267583,56.3344178 14.2267583,56.7469431 L14.2267583,60.1177762 L10.8559253,60.1177762 C10.4325445,60.1177762 10.1089822,60.4511613 10.1089822,60.8624127 C10.1089822,61.2765313 10.4434,61.6070492 10.8559253,61.6070492 L14.2267583,61.6070492 L14.2267583,64.9778822 C14.2267583,65.401263 14.5601434,65.7248254 14.9713948,65.7248254 C15.3855134,65.7248254 15.7160314,65.3904075 15.7160314,64.9778822 L15.7160314,61.6070492 Z" id="Combined-Shape-Copy-7" fill="#F3F1EE"></path>
                </g>
            </g>
        </g>
    </g>
</svg>