<?xml version="1.0" encoding="UTF-8" standalone="no"?>
<svg width="97px" height="76px" viewBox="0 0 97 76" version="1.1" xmlns="http://www.w3.org/2000/svg" xmlns:xlink="http://www.w3.org/1999/xlink">
    <!-- Generator: Sketch 39 (31667) - http://www.bohemiancoding.com/sketch -->
    <title>no_wifi@1x</title>
    <desc>Created with Sketch.</desc>
    <defs></defs>
    <g id="Page-1" stroke="none" stroke-width="1" fill="none" fill-rule="evenodd">
        <g id="14-订单为空" transform="translate(-139.000000, -419.000000)" fill="#E6E4E1">
            <g id="no_wifi" transform="translate(139.000000, 419.000000)">
                <g id="Group" transform="translate(0.101562, 0.023438)">
                    <path d="M95.0669888,24.0623746 C93.8843036,25.5655617 91.6875304,25.5655617 90.336248,24.3962307 C45.3908716,-14.9987881 7.3730092,22.7269502 5.68286273,24.3962307 C5.00763875,25.0639429 4.16214826,25.397799 3.31749229,25.397799 C2.4720017,25.397799 1.62734582,25.0639429 0.951287237,24.3962307 C-0.231397936,23.2277343 -0.399995328,21.0576698 0.951287237,19.7222454 C1.28931653,19.2214612 45.0520077,-24.1798307 94.8975569,19.3883893 C96.249674,20.5568857 96.4182713,22.7269503 95.0669888,24.0623746 L95.0669888,24.0623746 Z M81.5491557,33.7442013 C82.7243291,34.6472821 82.9822329,36.1446267 82.4981416,37.3957523 C80.8029873,36.9884478 79.0418965,36.7489062 77.2215461,36.7489062 C76.4386535,36.7489062 75.6657768,36.7898035 74.9037502,36.867425 C44.3634295,12.3131442 20.1897446,37.7780176 19.2006959,38.9189707 C18.5246373,39.7536109 17.5105495,40.087467 16.6658936,40.087467 C15.9906696,40.087467 15.1451791,39.753611 14.4699551,39.2528268 C13.117838,38.0843305 13.117838,35.914266 14.3005231,34.5788415 C14.6377177,34.2449855 45.220605,1.8609446 81.5491557,33.7442013 L81.5491557,33.7442013 Z M46.9107515,39.753611 C51.7566726,39.5357699 56.4573665,40.8887217 60.9694315,43.6989554 C59.3978039,45.3373541 58.0799071,47.2127907 57.0574728,49.2668404 C53.8257458,47.3062705 50.5689797,46.3289068 47.2487809,46.4315676 C38.8005525,46.5984956 32.5482625,53.942495 32.5482625,53.942495 C31.3655773,55.4448474 29.1696389,55.6117755 27.8175217,54.4432792 C26.2968072,53.2747828 26.1282099,51.2716463 27.3108951,49.7692938 C27.6489242,49.2685096 35.421094,40.2543951 46.9107515,39.753611 L46.9107515,39.753611 Z M47.9248394,57.6149119 C49.6942767,57.6149119 51.4528636,58.3352064 52.7039893,59.5704739 C53.9551151,60.8065761 54.683756,62.5442971 54.683756,64.2920337 C54.683756,66.040605 53.9559497,67.7774913 52.7039893,69.0135935 C51.4528636,70.2496958 49.6951113,70.9691556 47.9248394,70.9691556 C46.155402,70.9691556 44.3976497,70.2488611 43.1456894,69.0135935 C41.8945636,67.7774913 41.1659227,66.0397704 41.1659227,64.2920337 C41.1659227,62.5442971 41.8945636,60.8074107 43.1456894,59.5704739 C44.3968151,58.3343718 46.155402,57.6149119 47.9248394,57.6149119 L47.9248394,57.6149119 Z M77.221546,42.5913877 C86.440982,42.5913877 93.9143506,50.0647564 93.9143506,59.2841924 C93.9143506,68.5036283 86.440982,75.976997 77.221546,75.976997 C68.00211,75.976997 60.5287414,68.5036283 60.5287414,59.2841924 C60.5287414,50.0647564 68.00211,42.5913877 77.221546,42.5913877 L77.221546,42.5913877 Z M75.7642642,68.6964302 C76.1248288,69.0778608 76.63229,69.2998751 77.1422552,69.2998751 C77.653055,69.2998751 78.1596816,69.0778608 78.5210809,68.6964302 C78.8816454,68.3149997 79.0919748,67.7783259 79.0919748,67.2391484 C79.0919748,66.6991361 78.8816454,66.1632971 78.5210809,65.7818665 C78.1605163,65.400436 77.653055,65.1784217 77.1422552,65.1784217 C76.6322899,65.1784217 76.1248288,65.400436 75.7642642,65.7818665 C75.402865,66.1632971 75.1933703,66.6999708 75.1933703,67.2391484 C75.1933703,67.7783259 75.402865,68.3149997 75.7642642,68.6964302 L75.7642642,68.6964302 Z M74.5807444,52.4593392 L75.667446,62.4558252 L75.6774617,62.4558252 C75.7050048,63.219521 76.3159614,63.829643 77.066303,63.829643 C77.8166446,63.829643 78.4284359,63.2186864 78.455979,62.4558252 L78.4659947,62.4558252 L79.5535309,52.4593392 C79.5935936,52.274049 79.6161289,52.0820818 79.6161289,51.884272 C79.6161289,50.4395098 78.4743411,49.2685095 77.0671376,49.2685095 C75.6590996,49.2685095 74.5181464,50.4395098 74.5181464,51.884272 C74.5181464,52.0820818 74.5406817,52.2748837 74.5807444,52.4593392 L74.5807444,52.4593392 Z" id="Shape"></path>
                </g>
            </g>
        </g>
    </g>
</svg>