<?xml version="1.0" encoding="UTF-8" standalone="no"?>
<svg width="34px" height="14px" viewBox="0 0 34 14" version="1.1" xmlns="http://www.w3.org/2000/svg" xmlns:xlink="http://www.w3.org/1999/xlink">
    <!-- Generator: Sketch 39 (31667) - http://www.bohemiancoding.com/sketch -->
    <title>please_logo</title>
    <desc>Created with Sketch.</desc>
    <defs>
        <polygon id="path-1" points="0 14 33.2673267 14 33.2673267 0 0 0"></polygon>
    </defs>
    <g id="Page-1" stroke="none" stroke-width="1" fill="none" fill-rule="evenodd">
        <g id="2-商品列表" transform="translate(-18.000000, -259.000000)">
            <g id="Group-8" transform="translate(18.000000, 259.000000)">
                <g id="please_logo">
                    <path d="M10.2063021,9.79642852 L10.2063021,11.3436889 L11.2055595,11.3436889 C11.8187359,11.3644977 12.1148901,11.1015519 12.0937333,10.5546318 C12.1042498,10.0493094 11.8083431,9.79642852 11.2055595,9.79642852 L10.2063021,9.79642852 L10.2063021,9.79642852 Z M9.84158416,12.8910891 L9.84158416,9.56435644 L11.3166637,9.56435644 C12.0672151,9.58516524 12.4531929,9.91517051 12.4744529,10.5546318 C12.495486,11.2458756 12.0989916,11.5862852 11.2848872,11.5758808 L10.2063021,11.5758808 L10.2063021,12.8910891 L9.84158416,12.8910891 L9.84158416,12.8910891 Z" id="Fill-1" fill="#595757"></path>
                    <mask id="mask-2" fill="white">
                        <use xlink:href="#path-1"></use>
                    </mask>
                    <g id="Clip-4"></g>
                    <polygon id="Fill-3" fill="#595757" mask="url(#mask-2)" points="12.7524752 12.8910891 13.2524752 12.8910891 13.2524752 9.42574257 12.7524752 9.42574257"></polygon>
                    <path d="M13.9662473,11.659016 L15.5743617,11.659016 C15.5530195,11.09435 15.287764,10.8017701 14.7783052,10.7810575 C14.2898988,10.7914138 14.0192405,11.0839937 13.9662473,11.659016 M15.9405941,11.8900148 L13.9662473,11.8900148 C13.998126,12.475274 14.3110133,12.7729427 14.9056958,12.7832989 C15.3407364,12.7934167 15.6751108,12.6242177 15.9086947,12.275026 L15.9086947,12.5830112 C15.6751108,12.8807792 15.3141364,13.029703 14.8260612,13.029703 C14.0299012,12.9988727 13.6159336,12.5933874 13.5841584,11.8130284 C13.6159336,10.9916817 14.0139618,10.5654838 14.7783052,10.5346535 C15.5530195,10.5346535 15.9405941,10.9866128 15.9405941,11.8900148" id="Fill-5" fill="#595757" mask="url(#mask-2)"></path>
                    <path d="M17.9890382,12.7972961 L17.9890382,11.7126176 L17.3113408,11.7126176 C16.7876291,11.7126176 16.5309194,11.898587 16.5412319,12.270406 C16.5309194,12.6321455 16.7669842,12.8074956 17.2497665,12.7972961 L17.9890382,12.7972961 Z M17.3266793,11.4802107 L17.9890382,11.4802107 C17.9991504,10.9947782 17.7834903,10.7571517 17.3421179,10.7673511 C16.9416549,10.7571517 16.6899513,10.9378214 16.5873875,11.3097404 L16.2485589,11.3097404 C16.3922922,10.7828502 16.756872,10.5247448 17.3421179,10.5349443 C17.9786056,10.5349443 18.2970297,10.8192082 18.2970297,11.387216 L18.2970297,13.029703 L17.2189093,13.029703 C16.5616565,13.029703 16.227914,12.7868767 16.2178218,12.3014442 C16.227914,11.7540552 16.5974997,11.4802107 17.3266793,11.4802107 L17.3266793,11.4802107 Z" id="Fill-6" fill="#595757" mask="url(#mask-2)"></path>
                    <path d="M18.8514851,12.5489455 L18.8514851,12.2390837 C19.1453582,12.6213166 19.49733,12.8070538 19.9068477,12.796835 C20.3479439,12.8070538 20.5630549,12.6627515 20.552713,12.3629884 C20.5630549,12.1048802 20.3530636,11.9499593 19.9226574,11.8982056 C19.2295676,11.7845996 18.898812,11.5522082 18.9302472,11.2009115 C18.9721472,10.7774636 19.2767921,10.5554709 19.8438544,10.5346535 C20.4003905,10.5450722 20.7311666,10.7774636 20.8362646,11.2319476 L20.4897197,11.2319476 C20.426706,10.9219858 20.2219574,10.7670449 19.8754329,10.7670449 C19.5076514,10.7774636 19.3186716,10.9219858 19.3083297,11.2009115 C19.2871135,11.4386222 19.518239,11.5831244 20.001399,11.6347781 C20.6208055,11.7277666 20.9306931,11.9654574 20.9306931,12.3474703 C20.9306931,12.8019344 20.59449,13.0292464 19.9226574,13.0292464 C19.4918826,13.0394252 19.1350163,12.8794049 18.8514851,12.5489455" id="Fill-7" fill="#595757" mask="url(#mask-2)"></path>
                    <path d="M21.5899683,11.659016 L23.1981241,11.659016 C23.1767819,11.09435 22.9115264,10.8017701 22.4020883,10.7810575 C21.9136612,10.7914138 21.6430235,11.0839937 21.5899683,11.659016 M23.5643564,11.8900148 L21.5899683,11.8900148 C21.6218677,12.475274 21.934755,12.7729427 22.5294375,12.7832989 C22.9645195,12.7934167 23.2988732,12.6242177 23.532457,12.275026 L23.532457,12.5830112 C23.2988732,12.8807792 22.937878,13.029703 22.4498028,13.029703 C21.6536843,12.9988727 21.239696,12.5933874 21.2079208,11.8130284 C21.239696,10.9916817 21.6377242,10.5654838 22.4020883,10.5346535 C23.1767819,10.5346535 23.5643564,10.9866128 23.5643564,11.8900148" id="Fill-8" fill="#595757" mask="url(#mask-2)"></path>
                    <path d="M25.7031169,12.6570159 L26.499208,12.6570159 C27.3665564,12.6878699 27.7902983,12.2138446 27.7698965,11.2343814 C27.7698965,10.2756138 27.3462739,9.79627995 26.499208,9.79627995 L25.7031169,9.79627995 L25.7031169,12.6570159 Z M25.3663366,12.8889594 L25.3663366,9.56435644 L26.5298804,9.56435644 C27.5912955,9.57475418 28.1271184,10.1314026 28.137389,11.2343814 C28.167942,12.3786518 27.6269241,12.9299716 26.5145542,12.8889594 L25.3663366,12.8889594 Z" id="Fill-9" fill="#595757" mask="url(#mask-2)"></path>
                    <path d="M30.1870439,12.7972961 L30.1870439,11.7126176 L29.5093595,11.7126176 C28.9856579,11.7126176 28.7289532,11.898587 28.7392655,12.270406 C28.7289532,12.6321455 28.9650134,12.8074956 29.4477865,12.7972961 L30.1870439,12.7972961 Z M29.5246977,11.4802107 L30.1870439,11.4802107 C30.1971559,10.9947782 29.98152,10.7571517 29.5401361,10.7673511 C29.1396807,10.7571517 28.887982,10.9378214 28.7854203,11.3097404 L28.4465981,11.3097404 C28.5903087,10.7828502 28.9549214,10.5247448 29.5401361,10.5349443 C30.1766316,10.5349443 30.4950495,10.8192082 30.4950495,11.387216 L30.4950495,13.029703 L29.4169298,13.029703 C28.7596897,13.029703 28.4259736,12.7868767 28.4158416,12.3014442 C28.4259736,11.7540552 28.7955523,11.4802107 29.5246977,11.4802107 L29.5246977,11.4802107 Z" id="Fill-10" fill="#595757" mask="url(#mask-2)"></path>
                    <path d="M30.8041545,13.8832189 L30.8041545,13.66109 C30.9315188,13.7245437 31.0482021,13.756332 31.1544321,13.756332 C31.3454475,13.756332 31.525844,13.5551768 31.6957458,13.1532556 L31.7913156,12.9152325 L30.7722772,10.5346535 L31.1703915,10.5346535 L31.9663923,12.5501996 L32.746558,10.5346535 L33.1287129,10.5346535 L32.0937359,13.0421399 C31.8390487,13.7297667 31.5469368,14.0471376 31.2181246,13.9943551 C31.0588624,13.9943551 30.9208792,13.9571185 30.8041545,13.8832189" id="Fill-11" fill="#595757" mask="url(#mask-2)"></path>
                    <polygon id="Fill-12" fill="#EA5515" mask="url(#mask-2)" points="0.301098628 11.6435644 7.97249994 11.6435644 8.31683168 12.5591899 1.30888455 13.029703 0.138613861 12.6754394"></polygon>
                    <polygon id="Fill-13" fill="#F39700" mask="url(#mask-2)" points="13.1715988 2.36542143 13.0296829 0 12.2718236 0 12.1461748 0 12.181173 2.31523489 10.7989361 2.24520763 10.6732673 3.06734749 11.4901647 3.22552886 12.1949359 3.22552886 12.2718236 8.31683168 12.7431067 8.31683168 13.528592 8.31683168 13.2231845 3.22552886 15.3861386 3.22552886 15.1661931 2.4665204"></polygon>
                    <path d="M9.88715102,6.63320904 C11.5494533,6.47460346 11.6435644,4.15841584 11.6435644,4.15841584 L9.10308541,5.96694424 C9.10308541,5.96694424 8.22490874,6.79181461 9.88715102,6.63320904" id="Fill-14" fill="#F39700" mask="url(#mask-2)"></path>
                    <path d="M13.4640005,4.15841584 C13.4640005,4.15841584 13.2470583,5.29240496 14.3007465,5.10854969 C15.3544149,4.92467488 15.0754864,4.37299182 15.0754864,4.37299182 L13.4640005,4.15841584 Z" id="Fill-15" fill="#F39700" mask="url(#mask-2)"></path>
                    <path d="M16.8899485,0.685519523 L16.3693549,0.277227723 L15.9405941,7.87716209 L16.3693549,8.31683168 L17.1655638,7.90855991 L17.0403214,4.62640645 C17.5092676,4.95578319 18.0187897,5.38584121 18.5742574,5.93033707 L18.5742574,5.01391321 C18.167288,4.64000283 17.6429454,4.27624467 17.0134335,3.9218578 L16.8899485,0.685519523 Z" id="Fill-16" fill="#F39700" mask="url(#mask-2)"></path>
                    <path d="M22.8934185,2.73594784 C22.9333131,2.73821274 22.9703409,2.74011363 23.0003119,2.74112475 C23.3216537,2.75147858 23.8366546,2.74112475 23.8366546,2.74112475 L23.8366546,2.47362396 L23.631829,2.26084476 L22.8934185,2.22094613 L22.8934185,1.39741255 L24.4810221,1.52107201 L24.2218277,3.03614811 L24.2218277,3.41321341 L24.2081553,3.41357741 C24.2081553,3.41357741 23.5497945,3.40548848 22.8934185,3.40166646 L22.8934185,2.73594784 Z M25.6429967,7.18677836 L22.6230376,7.18677836 L22.6890541,7.09165259 L22.7901537,6.1347124 L24.009765,6.34405381 L25.3025697,6.21958546 L25.2009488,5.59928615 L22.8719075,5.36068305 L22.8934185,5.15698367 L22.8934185,4.26873868 C23.5084966,4.25802086 24.0753805,4.22067024 24.414765,4.19405767 C24.503335,4.21195442 24.6153405,4.21304643 24.7361269,4.16643399 C24.7373498,4.16633288 24.7406175,4.16596888 24.7406175,4.16596888 L24.7405975,4.16453309 C24.8947429,4.1034617 25.0621798,3.96382661 25.2122155,3.67224104 C25.6366617,2.84743346 25.2122155,0.693069307 25.2122155,0.693069307 L24.7406175,0.693069307 L24.622698,0.693069307 L20.6375107,0.693069307 L20.6375107,1.108011 L22.1466883,1.33925318 L22.4517716,1.36297395 C22.4398633,1.55421639 22.4216602,1.84398195 22.3991067,2.19423245 L21.4471099,2.14290821 L21.4471099,2.47362396 L21.7713987,2.63999295 C21.7713987,2.63999295 22.0588802,2.66852664 22.3665696,2.69542232 C22.3519549,2.91802957 22.3362377,3.15499466 22.3197586,3.39984645 C21.9327412,3.39984645 21.6290813,3.40322358 21.5942187,3.41357741 C21.4896708,3.44455799 20.6270659,3.43020015 20.6270659,3.43020015 C20.6270659,3.43020015 20.6227758,3.42929015 20.6204502,3.42874414 L20.408608,1.22849555 L19.7858317,1.41621931 L19.9660589,3.85640567 L20.2953596,4.10710172 L20.4958348,4.0365865 C20.9062678,4.19494745 21.5739907,4.25557396 22.260037,4.26863757 C22.2358798,4.61318538 22.2110008,4.95844098 22.1860817,5.29045095 L20.0316945,5.06984571 L19.9812149,5.65234951 L22.129247,6.02114388 C22.0909763,6.49359783 22.0543494,6.90030904 22.0222333,7.18677836 L19.8405414,7.18677836 L19.6831683,7.18677836 L20.0660159,8.45544554 L21.77194,8.04311253 L25.9948909,8.04311253 L27.5841584,7.66250833 L27.3457933,7.18677836 L25.6429967,7.18677836 Z" id="Fill-17" fill="#F39700" mask="url(#mask-2)"></path>
                    <path d="M27.5043136,4.39661108 L27.1683168,4.59670294 L27.2944477,4.95037529 L27.8385364,4.95037529 C28.1957011,4.89963022 28.5218713,4.86006292 28.8289065,4.82745946 L28.7532639,4.85153616 L28.7532639,7.76974356 L29.1874466,8.15710747 L29.7304191,7.76974356 L29.7304191,4.75180677 C33.9931149,4.50292843 32.105996,6.40787651 31.7211455,6.98255204 C31.2487528,7.68795795 30.7042854,8.31017359 30.7042854,8.31017359 L31.374505,8.73267327 C31.7904696,8.37063243 32.5993573,7.18121948 32.5993573,7.18121948 C35.5575319,2.9944843 27.7461108,4.36744998 27.5043136,4.39661108" id="Fill-18" fill="#F39700" mask="url(#mask-2)"></path>
                    <polygon id="Fill-19" fill="#F39700" mask="url(#mask-2)" points="28.887314 3.5102866 29.3774734 3.5102866 29.197363 2.72929398 31.0052656 2.66498218 30.7556466 3.29810017 31.6206643 3.74257426 31.8623845 2.63451657 32.4801829 2.61259347 32.990099 1.86214744 32.0166992 1.92726896 32.3526639 0.387186587 32.0560327 0 31.2766209 1.97674269 29.0580659 2.12518412 28.6099197 0.181720813 27.8423459 0.0210931366 28.4840004 2.16356472 27.3808019 2.23741094 27.1683168 2.80139931 28.6591316 2.74838307"></polygon>
                    <path d="M4.66559053,1.72323919 C6.29534351,1.76088256 6.5761358,4.05279727 6.5761358,4.05279727 C6.5761358,4.05279727 6.63554303,5.47699177 3.98092523,7.59210407 C2.45081856,8.81126361 1.14418001,10.222627 0.328101755,11.5049505 L1.62857125,11.5049505 C2.31986628,10.4977069 3.42669144,9.96189603 4.73104664,8.88677298 C6.61345059,7.33517793 8.08795562,5.47699177 8.31683168,3.84195391 C7.86112256,2.14265922 6.70951164,0.389449497 4.28348949,0.277227723 C2.2450965,0.719314728 0.682522154,1.66592412 0,3.83410142 L1.18417874,4.58619981 C1.33590152,4.13717105 1.72074659,2.82823408 1.72074659,2.82823408 C1.72074659,2.82823408 3.6098003,1.77713397 4.66559053,1.72323919" id="Fill-20" fill="#EA5515" mask="url(#mask-2)"></path>
                </g>
            </g>
        </g>
    </g>
</svg>