<?xml version="1.0" encoding="UTF-8" standalone="no"?>
<svg width="62px" height="38px" viewBox="0 0 62 38" version="1.1" xmlns="http://www.w3.org/2000/svg" xmlns:xlink="http://www.w3.org/1999/xlink">
    <!-- Generator: Sketch 39 (31667) - http://www.bohemiancoding.com/sketch -->
    <title>sun_icon</title>
    <desc>Created with Sketch.</desc>
    <defs>
        <filter x="-50%" y="-50%" width="200%" height="200%" filterUnits="objectBoundingBox" id="filter-1">
            <feOffset dx="0" dy="0" in="SourceAlpha" result="shadowOffsetOuter1"></feOffset>
            <feGaussianBlur stdDeviation="2" in="shadowOffsetOuter1" result="shadowBlurOuter1"></feGaussianBlur>
            <feColorMatrix values="0 0 0 0 0.133333333   0 0 0 0 0.133333333   0 0 0 0 0.149019608  0 0 0 0.1 0" type="matrix" in="shadowBlurOuter1" result="shadowMatrixOuter1"></feColorMatrix>
            <feMerge>
                <feMergeNode in="shadowMatrixOuter1"></feMergeNode>
                <feMergeNode in="SourceGraphic"></feMergeNode>
            </feMerge>
        </filter>
    </defs>
    <g id="Page-1" stroke="none" stroke-width="1" fill="none" fill-rule="evenodd">
        <g id="2-商品列表" transform="translate(-249.000000, -264.000000)">
            <g id="Group-Copy-5" filter="url(#filter-1)" transform="translate(8.000000, 249.000000)">
                <g id="Group-4" transform="translate(188.000000, 19.000000)">
                    <g id="sun_icon" transform="translate(57.000000, 0.000000)">
                        <path d="M54,28 C54,13.6405965 42.3594035,3 28,3 C13.6405965,3 2,15.6405965 2,30 C18,25 38,32 54,28 Z" id="Oval" fill="#E6E4E1" transform="translate(28.000000, 16.500000) rotate(-1.000000) translate(-28.000000, -16.500000) "></path>
                        <path d="M52,26 C52,11.6405965 40.3594035,0 26,0 C11.6405965,0 0,11.6405965 0,26 C16,21 36,30 52,26 Z" id="Oval" fill="#F39800"></path>
                        <text id="阳光基金" font-family="PingFangSC-Semibold, PingFang SC" font-size="9" font-weight="500" line-spacing="10" fill="#FFFFFF">
                            <tspan x="8" y="21">阳光基金</tspan>
                        </text>
                    </g>
                </g>
            </g>
        </g>
    </g>
</svg>